<svg xmlns="http://www.w3.org/2000/svg" data-bbox="146.82573009536742 183.74675358145765 101.72019031179656 28.82552426530765" viewBox="146.83 183.75 101.72 28.83"><defs data-uid="o_f5h591nng_5" transform="translate(48 48) scale(.8125)"><linearGradient id="a" x1="85.94%" x2="14.06%" y1="15.29%" y2="84.71%" data-uid="o_f5h591nng_6" gradientUnits="userSpaceOnUse"><stop data-uid="o_f5h591nng_7" offset="0%" stop-color="#00F2FE"/><stop data-uid="o_f5h591nng_8" offset="0%" stop-color="#03FEF8"/><stop data-uid="o_f5h591nng_9" offset="100%" stop-color="#339CF8"/></linearGradient></defs><g data-uid="o_f5h591nng_10"><g fill="url(#a)" data-uid="o_f5h591nng_11" transform="translate(146.826 180.629) scale(.06848)"><path d="M75.705 158.503a50.358 50.358 0 0 0-8.723-.765c-24.287 0-44.978 17.379-49.2 41.323L.765 295.572c-4.788 27.151 13.407 53.135 40.558 57.923 2.88.508 5.815.765 8.723.765 24.285 0 44.978-17.38 49.2-41.323l17.018-96.511c4.786-27.152-13.408-53.135-40.559-57.923z" data-uid="o_f5h591nng_12"/><path d="M215.176 114.187a50.358 50.358 0 0 0-8.723-.765c-24.286 0-44.978 17.379-49.199 41.323l-32.646 185.144c-2.319 13.152.623 26.421 8.283 37.361 7.66 10.939 19.123 18.242 32.275 20.562 2.88.508 5.815.765 8.723.765 24.286 0 44.978-17.38 49.2-41.323l32.646-185.144c4.787-27.152-13.408-53.135-40.559-57.923z" data-uid="o_f5h591nng_13"/><path d="M386.922 83.046c-7.661-10.94-19.123-18.242-32.274-20.562a50.393 50.393 0 0 0-8.726-.766c-24.285 0-44.976 17.379-49.198 41.324L245.845 391.59c-2.319 13.152.623 26.421 8.283 37.361 7.661 10.939 19.123 18.242 32.274 20.562 2.88.508 5.815.766 8.725.766 24.287 0 44.977-17.38 49.199-41.324l50.879-288.548c2.319-13.152-.622-26.421-8.283-37.361z" data-uid="o_f5h591nng_14"/><path d="M470.675 158.503a50.358 50.358 0 0 0-8.723-.765c-24.287 0-44.978 17.379-49.2 41.323l-17.018 96.511c-4.788 27.151 13.407 53.135 40.558 57.923 2.88.508 5.815.765 8.723.765 24.285 0 44.978-17.38 49.2-41.323l17.018-96.511c4.788-27.152-13.406-53.135-40.558-57.923z" data-uid="o_f5h591nng_15"/></g><path fill="#1b5b7b" d="M213.713 186.38v26.192h-5.232v-7.075h-18.37v7.075h-5.224v-14.408q0-3.156 1.081-5.815 1.09-2.65 3.019-4.563 1.93-1.912 4.563-2.976 2.633-1.063 5.746-1.063h11.784q.54 0 1.02.197.48.206.85.566.36.36.557.85.206.48.206 1.02Zm-23.603 11.784v2.11h18.371V188.97h-9.185q-.24 0-1.012.077-.772.069-1.793.352-1.012.274-2.135.857-1.132.583-2.076 1.613-.943 1.02-1.56 2.564-.61 1.535-.61 3.73Zm58.436-2.359v4.709q0 2.633-.918 4.845-.909 2.205-2.521 3.808-1.604 1.596-3.817 2.505-2.213.9-4.803.9h-14.116q-.558 0-1.047-.197-.48-.206-.832-.557-.351-.352-.549-.832-.205-.48-.205-1.047v-23.56q0-.54.205-1.02.198-.489.55-.849.35-.36.831-.566.49-.197 1.047-.197h14.116q2.59 0 4.803.909 2.213.9 3.817 2.496 1.612 1.603 2.521 3.825.918 2.221.918 4.828Zm-5.232 4.709v-4.709q0-1.526-.489-2.787-.488-1.27-1.398-2.161-.9-.9-2.16-1.39-1.253-.497-2.78-.497H224.97v18.38h11.518q1.527 0 2.78-.498 1.26-.49 2.16-1.39.91-.892 1.398-2.144.49-1.26.49-2.804Z" data-fl-textpath="" data-uid="o_f5h591nng_16" font-family="Audiowide" font-size="48" font-weight="400" letter-spacing="0"/></g></svg>